<mxfile host="app.diagrams.net" modified="2021-12-16T16:41:00.819Z" agent="5.0 (Macintosh; Intel Mac OS X 10_15_7) AppleWebKit/537.36 (KHTML, like Gecko) Chrome/96.0.4664.93 Safari/537.36" etag="EJeGQtitlVyv1mIt1eD6" version="14.9.6" type="github">
  <diagram id="C5RBs43oDa-KdzZeNtuy" name="Page-1">
    <mxGraphModel dx="1426" dy="794" grid="1" gridSize="10" guides="1" tooltips="1" connect="1" arrows="1" fold="1" page="1" pageScale="1" pageWidth="827" pageHeight="1169" math="0" shadow="0">
      <root>
        <mxCell id="WIyWlLk6GJQsqaUBKTNV-0" />
        <mxCell id="WIyWlLk6GJQsqaUBKTNV-1" parent="WIyWlLk6GJQsqaUBKTNV-0" />
        <mxCell id="leLsdNwOVgtOYoq6AfLH-10" value="" style="edgeStyle=orthogonalEdgeStyle;orthogonalLoop=1;jettySize=auto;html=1;" edge="1" parent="WIyWlLk6GJQsqaUBKTNV-1" source="leLsdNwOVgtOYoq6AfLH-0" target="leLsdNwOVgtOYoq6AfLH-1">
          <mxGeometry relative="1" as="geometry" />
        </mxCell>
        <mxCell id="leLsdNwOVgtOYoq6AfLH-0" value="需求讲解&lt;br&gt;（HA)" style="whiteSpace=wrap;html=1;" vertex="1" parent="WIyWlLk6GJQsqaUBKTNV-1">
          <mxGeometry x="30" y="60" width="120" height="60" as="geometry" />
        </mxCell>
        <mxCell id="leLsdNwOVgtOYoq6AfLH-11" value="" style="edgeStyle=orthogonalEdgeStyle;orthogonalLoop=1;jettySize=auto;html=1;" edge="1" parent="WIyWlLk6GJQsqaUBKTNV-1" source="leLsdNwOVgtOYoq6AfLH-1" target="leLsdNwOVgtOYoq6AfLH-4">
          <mxGeometry relative="1" as="geometry" />
        </mxCell>
        <mxCell id="leLsdNwOVgtOYoq6AfLH-1" value="创建Story&lt;br&gt;(SA)" style="whiteSpace=wrap;html=1;" vertex="1" parent="WIyWlLk6GJQsqaUBKTNV-1">
          <mxGeometry x="200" y="60" width="120" height="60" as="geometry" />
        </mxCell>
        <mxCell id="leLsdNwOVgtOYoq6AfLH-12" value="" style="edgeStyle=orthogonalEdgeStyle;orthogonalLoop=1;jettySize=auto;html=1;" edge="1" parent="WIyWlLk6GJQsqaUBKTNV-1" source="leLsdNwOVgtOYoq6AfLH-4" target="leLsdNwOVgtOYoq6AfLH-5">
          <mxGeometry relative="1" as="geometry" />
        </mxCell>
        <mxCell id="leLsdNwOVgtOYoq6AfLH-4" value="分派Story&lt;br&gt;(TL)" style="whiteSpace=wrap;html=1;" vertex="1" parent="WIyWlLk6GJQsqaUBKTNV-1">
          <mxGeometry x="370" y="60" width="120" height="60" as="geometry" />
        </mxCell>
        <mxCell id="leLsdNwOVgtOYoq6AfLH-9" value="" style="edgeStyle=orthogonalEdgeStyle;orthogonalLoop=1;jettySize=auto;html=1;" edge="1" parent="WIyWlLk6GJQsqaUBKTNV-1" source="leLsdNwOVgtOYoq6AfLH-5" target="leLsdNwOVgtOYoq6AfLH-7">
          <mxGeometry relative="1" as="geometry" />
        </mxCell>
        <mxCell id="leLsdNwOVgtOYoq6AfLH-5" value="创建Sub Task和评估工作量&lt;br&gt;(BD, FD, QA)" style="whiteSpace=wrap;html=1;" vertex="1" parent="WIyWlLk6GJQsqaUBKTNV-1">
          <mxGeometry x="538.13" y="60" width="120" height="60" as="geometry" />
        </mxCell>
        <mxCell id="leLsdNwOVgtOYoq6AfLH-7" value="Review &lt;br&gt;Sub Task&lt;br&gt;和评估工作量&lt;br&gt;(SBD, SFD)" style="rhombus;whiteSpace=wrap;html=1;" vertex="1" parent="WIyWlLk6GJQsqaUBKTNV-1">
          <mxGeometry x="530" y="180" width="136.25" height="100" as="geometry" />
        </mxCell>
        <mxCell id="leLsdNwOVgtOYoq6AfLH-21" value="" style="edgeStyle=elbowEdgeStyle;elbow=horizontal;endArrow=classic;html=1;entryX=1;entryY=0.5;entryDx=0;entryDy=0;rounded=0;" edge="1" parent="WIyWlLk6GJQsqaUBKTNV-1" target="leLsdNwOVgtOYoq6AfLH-5">
          <mxGeometry width="50" height="50" relative="1" as="geometry">
            <mxPoint x="666.25" y="230" as="sourcePoint" />
            <mxPoint x="716.25" y="180" as="targetPoint" />
            <Array as="points">
              <mxPoint x="740" y="160" />
            </Array>
          </mxGeometry>
        </mxCell>
        <mxCell id="leLsdNwOVgtOYoq6AfLH-24" value="Review&lt;br&gt;不通过" style="edgeLabel;html=1;align=center;verticalAlign=middle;resizable=0;points=[];" vertex="1" connectable="0" parent="leLsdNwOVgtOYoq6AfLH-21">
          <mxGeometry x="0.1552" y="1" relative="1" as="geometry">
            <mxPoint y="27" as="offset" />
          </mxGeometry>
        </mxCell>
      </root>
    </mxGraphModel>
  </diagram>
</mxfile>
